<mxfile host="65bd71144e">
    <diagram id="HIP3nbAZw_EuaXWnEj3U" name="Page-1">
        <mxGraphModel dx="911" dy="613" grid="1" gridSize="10" guides="1" tooltips="1" connect="1" arrows="1" fold="1" page="1" pageScale="1" pageWidth="850" pageHeight="1100" math="0" shadow="0">
            <root>
                <mxCell id="0"/>
                <mxCell id="1" parent="0"/>
                <mxCell id="7" value="http://ics2o.mths.ca" style="swimlane;whiteSpace=wrap;html=1;" parent="1" vertex="1">
                    <mxGeometry x="40" y="40" width="760" height="480" as="geometry"/>
                </mxCell>
                <mxCell id="8" value="http://ics2o.mths.ca" style="swimlane;whiteSpace=wrap;html=1;" parent="1" vertex="1">
                    <mxGeometry x="40" y="40" width="760" height="480" as="geometry"/>
                </mxCell>
                <mxCell id="9" value="http://ics2o.mths.ca" style="swimlane;whiteSpace=wrap;html=1;" parent="1" vertex="1">
                    <mxGeometry x="40" y="40" width="760" height="480" as="geometry"/>
                </mxCell>
                <mxCell id="10" value="Temperature is: x CÂ°" style="text;html=1;align=center;verticalAlign=middle;resizable=0;points=[];autosize=1;strokeColor=none;fillColor=none;fontSize=25;" parent="9" vertex="1">
                    <mxGeometry y="380" width="250" height="40" as="geometry"/>
                </mxCell>
                <mxCell id="11" value="fahrenheit to celsius" style="text;html=1;align=center;verticalAlign=middle;resizable=0;points=[];autosize=1;strokeColor=none;fillColor=none;fontSize=25;" parent="9" vertex="1">
                    <mxGeometry x="10" y="40" width="250" height="40" as="geometry"/>
                </mxCell>
                <mxCell id="12" value="&lt;font style=&quot;font-size: 23px;&quot;&gt;Please enter temperature in Fahrenheit&lt;/font&gt;" style="text;html=1;align=center;verticalAlign=middle;resizable=0;points=[];autosize=1;strokeColor=none;fillColor=none;fontSize=25;" parent="9" vertex="1">
                    <mxGeometry y="180" width="420" height="40" as="geometry"/>
                </mxCell>
                <mxCell id="13" value="&lt;font style=&quot;font-size: 21px;&quot;&gt;Calculate Celsius&lt;/font&gt;" style="rounded=1;whiteSpace=wrap;html=1;fontSize=25;" parent="9" vertex="1">
                    <mxGeometry x="15" y="310" width="145" height="50" as="geometry"/>
                </mxCell>
                <mxCell id="16" value="Fahrenheit:" style="text;html=1;align=center;verticalAlign=middle;resizable=0;points=[];autosize=1;strokeColor=none;fillColor=none;fontSize=25;" parent="9" vertex="1">
                    <mxGeometry x="40" y="237.17000000000002" width="150" height="40" as="geometry"/>
                </mxCell>
                <mxCell id="20" value="" style="shape=image;verticalLabelPosition=bottom;labelBackgroundColor=default;verticalAlign=top;aspect=fixed;imageAspect=0;image=data:image/png,iVBORw0KGgoAAAANSUhEUgAAATYAAACRCAYAAABJ0pRLAAAKsWlDQ1BJQ0MgUHJvZmlsZQAASImVlwdUU2kWx+976Y2WEAEpoTdBinTpNRRBOtgICSWUGAJBxa4MjmBFRQTUER0FUbBRxIZYsA2KvQ/IIKCugwVRUbMPWMLO7tnds/9zbr7fufne/9335d1zbgDoD3licQaqBJApypGE+3txYuPiOaQuQEAdGOACxjx+ttgzLCwYMI2vf9Wn+9huTHcsRrz+/fv/KmVBUjYfAAnDOFGQzc/E+AQWLXyxJAcAhwXoL8gRj3ApxiwJViDGh0Y4ZYxbRjhxjO+O7okM98a4D4BM5/EkKQC0j1iek8tPwXzoLIytRAKhCGMfjN34qTwBxvkYT8nMnD/CRzA2Sfwnn5S/eCbKPXm8FDmPPcuoyD7CbHEGb9H/eRz/W5kZ0vF76GFBT5UEhGOrGnZmVenzg+QsSpwROs5Cwej+UU6VBkSNMz/bO36cBTyfoHGWpkd5jjNPMnGtMIcbOc6S+eFyf1HGjGC5fxJXzknZvhHjnCz0445zXmpkzDjnCqNnjHN2ekTQxB5veV4iDZfXnCzxkz9jZvZEbXzexL1yUiMDJmqIldcjSPLxledFUfL94hwvuac4I2yi/gx/eT47N0J+bQ72go1zGi8wbMInTH4+EAz+wIEoyIAckAAP/EAIIkjKSVo48k6D93zxIokwJTWH44l1TRKHK+JbTuHYWFk7AIz04NhP/IE92lsI+9pEbnU1gOtJmUx2aiIXeAvgaAIAtX4iZzIHQKkX4MppvlSSO5bDj3wQgAqKwMI6XBv0wQQswAbssV73AF8IhFCIhDiYC3xIhUys8gWwBFZCARTBJtgGZbAb9kIVHIZj0Ain4TxchutwC+7BE+iEHngNA/AJhhEEISEMhImoIzqIIWKO2CCOiBviiwQj4UgckoCkICJEiixBViNFSDFShuxBqpGjyEnkPHIV6UAeIV1IP/Ie+YriUDrKQrVQI3Qq6oh6okFoJDoHTUGz0Dw0H92AlqKV6CG0AT2PXkfvoZ3oa3QQBzgajo3TxVngHHHeuFBcPC4ZJ8EtwxXiSnCVuFpcM64NdwfXiXuD+4In4pl4Dt4C74IPwEfh+fgs/DL8OnwZvgrfgL+Iv4Pvwg/gfxAYBE2COcGZwCXEElIICwgFhBLCfkI94RLhHqGH8IlIJLKJxkQHYgAxjphGXExcR9xJrCO2EDuI3cRBEomkTjInuZJCSTxSDqmAtIN0iHSOdJvUQ/pMppF1yDZkP3I8WUReRS4hHySfJd8m95KHKUoUQ4ozJZQioCyibKTsozRTblJ6KMNUZaox1ZUaSU2jrqSWUmupl6hPqR9oNJoezYk2kyakraCV0o7QrtC6aF/oKnQzujd9Nl1K30A/QG+hP6J/YDAYRgwPRjwjh7GBUc24wHjO+KzAVLBU4CoIFJYrlCs0KNxWeKtIUTRU9FScq5inWKJ4XPGm4hslipKRkrcST2mZUrnSSaUHSoPKTGVr5VDlTOV1ygeVryr3qZBUjFR8VQQq+Sp7VS6odDNxTH2mN5PPXM3cx7zE7GERWcYsLiuNVcQ6zGpnDaiqqE5TjVZdqFqueka1k41jG7G57Az2RvYx9n3210lakzwnJU1aO6l20u1JQ2qT1TzUktQK1erU7ql9Veeo+6qnq29Wb1R/poHXMNOYqbFAY5fGJY03k1mTXSbzJxdOPjb5sSaqaaYZrrlYc6/mDc1BLW0tfy2x1g6tC1pvtNnaHtpp2lu1z2r36zB13HSEOlt1zum84qhyPDkZnFLORc6ArqZugK5Ud49uu+6wnrFelN4qvTq9Z/pUfUf9ZP2t+q36AwY6BiEGSwxqDB4bUgwdDVMNtxu2GQ4ZGRvFGK0xajTqM1Yz5hrnGdcYPzVhmLibZJlUmtw1JZo6mqab7jS9ZYaa2ZmlmpWb3TRHze3NheY7zTumEKY4TRFNqZzywIJu4WmRa1Fj0WXJtgy2XGXZaPl2qsHU+Kmbp7ZN/WFlZ5Vhtc/qibWKdaD1Kutm6/c2ZjZ8m3Kbu7YMWz/b5bZNtu+mmU9LmrZr2kM7pl2I3Rq7Vrvv9g72Evta+34HA4cEhwqHB44sxzDHdY5XnAhOXk7LnU47fXG2d85xPub8p4uFS7rLQZe+6cbTk6bvm97tqufKc93j2unGcUtw+8Wt013Xnede6f7CQ99D4LHfo9fT1DPN85DnWy8rL4lXvdeQt7P3Uu8WH5yPv0+hT7uvim+Ub5nvcz89vxS/Gr8Bfzv/xf4tAYSAoIDNAQ+4Wlw+t5o7EOgQuDTwYhA9KCKoLOhFsFmwJLg5BA0JDNkS8nSG4QzRjMZQCOWGbgl9FmYclhV2aiZxZtjM8pkvw63Dl4S3RTAj5kUcjPgU6RW5MfJJlEmUNKo1WjF6dnR19FCMT0xxTGfs1NilsdfjNOKEcU3xpPjo+P3xg7N8Z22b1TPbbnbB7PtzjOcsnHN1rsbcjLln5inO4807nkBIiEk4mPCNF8qr5A0mchMrEgf43vzt/NcCD8FWQX+Sa1JxUm+ya3Jxcl+Ka8qWlP5U99SS1DdCb2GZ8F1aQNrutKH00PQD6bKMmIy6THJmQuZJkYooXXRxvvb8hfM7xObiAnFnlnPWtqwBSZBkfzaSPSe7KYeFDTs3pCbSn6RduW655bmfF0QvOL5QeaFo4Y1FZovWLurN88v7dTF+MX9x6xLdJSuXdC31XLpnGbIscVnrcv3l+ct7VvivqFpJXZm+8rdVVquKV31cHbO6OV8rf0V+90/+P9UUKBRICh6scVmz+2f8z8Kf29fart2x9kehoPBakVVRSdG3dfx119Zbry9dL9uQvKF9o/3GXZuIm0Sb7m9231xVrFycV9y9JWRLw1bO1sKtH7fN23a1ZFrJ7u3U7dLtnaXBpU07DHZs2vGtLLXsXrlXeV2FZsXaiqGdgp23d3nsqt2ttbto99dfhL883OO/p6HSqLJkL3Fv7t6X+6L3tf3q+Gv1fo39Rfu/HxAd6KwKr7pY7VBdfVDz4MYatEZa039o9qFbh30ON9Va1O6pY9cVHYEj0iOvjiYcvX8s6FjrccfjtScMT1TUM+sLG5CGRQ0DjamNnU1xTR0nA0+2Nrs015+yPHXgtO7p8jOqZzaepZ7NPys7l3dusEXc8uZ8yvnu1nmtTy7EXrh7cebF9ktBl65c9rt8oc2z7dwV1yunrzpfPXnN8VrjdfvrDTfsbtT/Zvdbfbt9e8NNh5tNt5xuNXdM7zh72/32+Ts+dy7f5d69fm/GvY77UfcfPpj9oPOh4GHfo4xH7x7nPh5+suIp4WnhM6VnJc81n1f+bvp7Xad955kun64bLyJePOnmd7/+I/uPbz35LxkvS3p1eqv7bPpO9/v133o161XPa/Hr4TcFf1P+W8Vbk7cn/vT488ZA7EDPO8k72ft1H9Q/HPg47WPrYNjg80+Zn4aHCj+rf6764vil7WvM197hBd9I30q/m35v/hH046ksUyYT8yS80VEAhwWanAzw/gAAIw6Aic0QVIWxGXlUyNhcP0rwn3hsjh6VPUAttoyMRt4tAEewMFoBoOgBMDIiRXoAamsrj38oO9nWZsyLjk2ahM8y2QctAFIzwHeJTDa8Uyb7vg8r9hFAS9bYbD4ibex/wixlQDI77q4fgn/V3wGkfAuiXISbwQAAAJZlWElmTU0AKgAAAAgABQESAAMAAAABAAEAAAEaAAUAAAABAAAASgEbAAUAAAABAAAAUgEoAAMAAAABAAIAAIdpAAQAAAABAAAAWgAAAAAAAACQAAAAAQAAAJAAAAABAAOShgAHAAAAEgAAAISgAgAEAAAAAQAAATagAwAEAAAAAQAAAJEAAAAAQVNDSUkAAABTY3JlZW5zaG90c2U8MQAAAAlwSFlzAAAWJQAAFiUBSVIk8AAAAtdpVFh0WE1MOmNvbS5hZG9iZS54bXAAAAAAADx4OnhtcG1ldGEgeG1sbnM6eD0iYWRvYmU6bnM6bWV0YS8iIHg6eG1wdGs9IlhNUCBDb3JlIDYuMC4wIj4KICAgPHJkZjpSREYgeG1sbnM6cmRmPSJodHRwOi8vd3d3LnczLm9yZy8xOTk5LzAyLzIyLXJkZi1zeW50YXgtbnMjIj4KICAgICAgPHJkZjpEZXNjcmlwdGlvbiByZGY6YWJvdXQ9IiIKICAgICAgICAgICAgeG1sbnM6ZXhpZj0iaHR0cDovL25zLmFkb2JlLmNvbS9leGlmLzEuMC8iCiAgICAgICAgICAgIHhtbG5zOnRpZmY9Imh0dHA6Ly9ucy5hZG9iZS5jb20vdGlmZi8xLjAvIj4KICAgICAgICAgPGV4aWY6UGl4ZWxYRGltZW5zaW9uPjYyMDwvZXhpZjpQaXhlbFhEaW1lbnNpb24+CiAgICAgICAgIDxleGlmOlVzZXJDb21tZW50PlNjcmVlbnNob3Q8L2V4aWY6VXNlckNvbW1lbnQ+CiAgICAgICAgIDxleGlmOlBpeGVsWURpbWVuc2lvbj4yOTA8L2V4aWY6UGl4ZWxZRGltZW5zaW9uPgogICAgICAgICA8dGlmZjpSZXNvbHV0aW9uVW5pdD4yPC90aWZmOlJlc29sdXRpb25Vbml0PgogICAgICAgICA8dGlmZjpZUmVzb2x1dGlvbj4xNDQ8L3RpZmY6WVJlc29sdXRpb24+CiAgICAgICAgIDx0aWZmOlhSZXNvbHV0aW9uPjE0NDwvdGlmZjpYUmVzb2x1dGlvbj4KICAgICAgICAgPHRpZmY6T3JpZW50YXRpb24+MTwvdGlmZjpPcmllbnRhdGlvbj4KICAgICAgPC9yZGY6RGVzY3JpcHRpb24+CiAgIDwvcmRmOlJERj4KPC94OnhtcG1ldGE+CkXLFNUAAEAASURBVHgB7d0HnF1F9QfwSQ8tEHon9N5UREEkNAEpNkQREFAQFcWC4B8E/kEsKIiIomBBlGIXFVABkSZd6UqH0DH0mh7+853sWW5e3u6+bbDL/84nb+99986cOfM7Zc6cufdlyMu5pLrUCNQI1Ai8jhAYbiyzZs5M9117dZo5fXoaOnzY62h49VBqBGoE/j8gMGvGzDRsxIi04pvfkoYOG5baHdu1Rx2QJp9/U5qeUahDuP8PqlCPsUbg9YHAkDyMEfkzz7brpxX+dO0rji3lO/OuvH4auccKaeUP7Zejtlzt5Vmvj1HXo6gRqBF4/SIwZGiaNWN6uuesH6XhYxZKfJlSIjYnsya/lFIO4Vbc9O1p2MhR2a/NSkPaKrlflxqBGoEagYGEgN2BIUOHppnTpqZ7fnXqbB/WxmC7YyueLjuzaS+9lIbnnBvHVpcagRqBGoGBjADHNmPq1ByZZX+VA7Morzg2ibUcoqk4JId3Kf+rS41AjUCNwEBGgK/is8rysrI5ULuvgSy1mrcagRqBHiFQO7YewVY3qhGoERjICNSObSBLp+atRqBGoEcI1I6tR7DVjWoEagQGMgK1YxvI0ql5qxGoEegRArVj6xFsdaMagRqBgYxA7dgGsnRq3moEagR6hEDt2HoEW92oRqBGYCAjUDu2gSydmrcagRqBHiHwypsHPWo+d6P4ebeh+Wlg57Pyqw7Ou1u09RnibYi2T7mWCc1+j3X29e7SHej1jTHwcl4t8b2KbXlTpFqp4bxg1kCnoUqnXwP7Tiu9yjebjaknfEK3YFrBp1U66ikhk/LldfaninPoZF8OsUo/6LaKf9Tv6Ninjg2jo0blF+jzcWp+f2tE/n2k0aNHl3MOLpShI2Zc11Y9bYcPH55m5vdWZ8yYUY6uuzYi03R9ev79uKjfGc3Bcs9YjM94Y1yBme8jR44s2EyZMiW/FjcszTvvvGnatGnt2DSOM+jBsqcFL9PzZyD8HkJgYjzDhg3PWLwyKnxWcXvlztxn6CgwRCswdo2eokO/qtfdqxb3FTSCXvX+YD83Jtj4wIQ991VBm6OcLcdX3u8klZndkGNn/PSZY6MEhHzLLbeUz+23356WWWaZtOaaa6Y3velNxeFRmM6UxYAZLyAfe+yxdOedd6ZHH300Pfzww2nSpElpnnnmScsuu2waN25cWmWVVdLyyy9f6HFwndHtDICBcs+Yje/f//53+tGPflTG/8lPfjJtttlmiSMzYdx9993pxhtvTP/5z3/SIoss0o7tAguMyU5+2hwYhGI+8sgjiSzg6lqrBZ6cJpyXW265YuyvJcYxHkc6cd9997Ubm8lghRVWKLrBYDrTB+3pqTbPPPNMuueee8oRLq4vvPDCaaWVVkrzzTdfGTO5xLi1hSP8v//975d+Pv3pT6d111238BL1WsV4oNYzZvr20EMPpZtuuiktuuiiacMNN2zHobd8o02nyZB+xiThOttecskli+PrTI5d8dCnju1Xv/pV+tjHPjZXn5/61KfSwQcfnBZaaKGmBkJhKAWlmThxYvrNb36TvvWtb6UXX3xxLlrVC0cddVT60Ic+lJZaaqk0Jc8oQzONwVhCkR588MG01157pdtuuy198IMfTGuvvXYxHjPbX//61/T+979/ruHtsssu6Stf+Upaeuml5zBoLoyRX3nllekjH/nIXO1avfCLX/yiGHpvlKzVvjqqF/gwNPyccMIJ6bnnnpurOh3be++9i5MTYTQ6Gno2PGP50osvZTz/kk455ZR09dVXz0Vn2223Tfvss0/aeuut21cNQQsNevyzn/2stFt55ZXTWmutNVdfcxEdJBcCa/geceSR6bfZFj/wgQ+kk046qeiT8fe0wJBO/utf/yqT9xlnnDEXKbr+xS9+Me2xxx5lomomx7kaNbnQ/eRXAxEDxcxVV13V7tQ4nPPPPz/95Cc/SQT/ve99L/385z9vX15VSWhvsGbLP/zhD2X2+/KXv5zmn3/+MmtW68b5ggsuWJT3f//3f9P48ePTHTmyG529fW9AD9qv9jHwe/755xPcODWGMmHChDR27NiCi2vh1L7whS+kv/zlL+mss85KG220Ufrtb3+bvvOd75SIAY5RhuVzs+INN9xQLomce1JMGq8lrrOyfohkRZ3GQDea8SOSP/bYY8tkcMcdd7SnRGLM2ojSnnryyXTYYYcWx8XAmhW6a2L5xje+UXClm9ozTKuOxRZbLJmslW9/+9tlRYF2M76a0R+I17grTm10xvrpp59O3/zmN4tTw+tOO+1UUkru96bA749//GPafPPNE6cG18YCRxP1Gmuske66665urzSCXq8jNsbEgMykynHHHZf222+/4uwMxHJxm222SUcccUR6z3veU77H7E8RtHfkBD//+c+XMFRIev/996e3vOUtRQHRcE27J7Ninnzyyemyyy5L66yzTrr11lvTOzJ9kQkjDNoxwIF+hJHx//jHP54DQ2N+Kf82HuGfd955ZRhf+tKX0uc+97mSW4ObSUNU8YMf/CDttttu6Q1vfGORhcgVXVhYSiicI/xhxjj91Giu0mGhxCLocXlpUHJsnVXukErvbsBlZJ40J+Yo/h3veEchxqk8/vjjZbJcddVVizGaVDk8js84DzzwwIKlCTDSH/CytKafP/3pT9MGG2xQlvUmDFG/fCW8Tz/99PT73/++3OcoLcP3zlFgLJfgwtFuuummhYcXXnih9Akn9OE+2Iox0bOReVwmBQHDOeec025flqJhpz0ZX2B2xRVXpA9/+MPFaUWq6sgcFdJ15d57700f//jHix1LN4jATzvttBLkdJXzbMS8145ttgHNKMqHOEMDEoHzvtbmjI7jkzdbccUV51AAdSgTp2bpJcekiPC22mqrNGbMmEKPkhdLzEd5J20OO+ywEuHJ65155pnpoIMOGlSKZUyj8kbIX/7850TAijFtsskmafLkyWXcjIUSKPBggLCF8eqrr54OOOCAdMwxx5RZtizFM02zr/vyFyYADlAuiVJZZjFgitpKIV//2U9PFLoV+p3V0SfHZBkkimBgnBpHtt5665Wm6nAy9Mry0XUGdO2116btt9++OHcVOelLL7200AqnxoAZEgdIFjB585vfXPDi1MZlZ8VJwp2DM1FEWXzxxeM0XXPNNWmLLbZoGdP2hp2cVPEuut9J3Z7e4nCM2QYfnfhz1sPdd9+9kJOzFDQocuUxQZQL3fiDdzb+xBNPlAhYU/q86667lskIrlHe9ra3FR/Avk1Sf/vb39L1119ffAr+qphEm46OrWl3R63brmfdahdqFYDw8rGjwtiiWGKIwiiFJLkkdTg1ivm+972vLEUZtkFNzlHhZMds8HIccnmUklPj8c3YojzL4lYVQb3efmI83T3ql7Hdmx2OqAEWyp577vmKI3chgxu4VWctQkYDPrOrvRIpuK6NWU+hWApjpMzdURC0XosS+JCpRL0JknGce+65JZqiBz4vZp0wpp133jntv//+6eabby7s0iErCTrokRjnv/vd78o9GzCWV/vuu2+JBuRy0TJhcHLoyFlGlCaKgSGeYEfH6ZyIUbnwwgvbJ5u+wmtGnkz0E860OzIrTLXwh0NDV1T/2c9+tjg141piiSVKEIKEQIXeVHWvBdLtVUKOIumLLrqoHTOrD3291CbHkKdJ5+tf/3qJghHhE+g4OXandK92E8oY50xCyH/6059K0t+uEuO65JJLSmjv3FIxlGVEmxe3tFLC+fHSb3jDG4qiBZgGJRopR0qaE8OWA3vnJYJCEIpdQ/20qlyUlUPp6ce4e1rCQITaivGfeuqpRdjOjdU4RmXnZ9dNkYMUscCWU5QjOv7448s90QwD5wiDtt1k5YEHHig70xSJsQyWYvwmPkWu0O66vCInZYwwkks0JkbKCKNY1sRYh2edEL2K8sfmXU9lr6w7dpbRojOFVj7C3s6oVYbNHMUEgZY+feDMAa622mrlPt44YHR6W0J238hRuFWMyfvXv/51b8k2bY9veV0Rr5ytyJ6u/Pe//y35XY3emNMb4dSbEuniYuBFbxV5M/lJkRpnRn5h1+Tt3EokilVeYB/XWjn2eilKyByDSMNjCiInzFjymOksrRRJ1ti5y9pRwLJMEnFZPphp5c7k1cygBthRAQYvbvlh6WDZoVDmVnJsACQsj5DgtbuCIyxOl2Fw1sWhdMRsk+vqc8z45pjQ4ZwtZ6pCxCdj2WGHHZIZzpKMgohm8S1vqRx++OEldIcJ3kwCzi3ZFAoktGf8aKoz0AseYTF+/PgSEdkRlZbg0DsaQ0yaxmbzKcYpYhONSVpzXHZC18zJafQb9Uwb9KvFxg6ZlXv5BvScV5dRHh1BqyPeqvQ6Pc909cU2Qq9tItn97s6k3VEf+DMhw9OST2GXHL90xXe/+92yJLVBpYiU6Q0dasSqVGjhD7nIjUeRJ1VCPnHdUV2PgUSBMX5FsN3R2l47NsxxJuuvv37ZoSOAH/7wh+UTzH31q18ta+pwAGZQywoJc4VTA7KciIE1G3DQiiMBUXJb/5RqgQUWKLtVM9sUMOo1O4ZwLUlit7FZva6u2Q7/fFvE2VXd6n0K+vzzL5SJwHVC93gLgcfyyXU4cFCeq7LckeQ2e1dncHlFSypKx1Bzo9IOHWG8SYcxy9s5L0sbdXQwwAs5MTqRpnO8hw4F676bmBgejKKY9emH+9Mzhr57jAgW9MWEVJ1EtNMH2Uh9mBRExiZZOSbGFcYd+iN9EoUM9dWK7kabpsfMg1JdDRhHXxW8w2vixIntJOmKnUjLedHqaXkVQZ+Mx6TbmxJYkWMU9s7OjbEaiMgfixgtRVfMQQsHR27t9TJPrZZeO7boCKPbbbddWa97sFZEYaahlJZSBK6OgRKUZaNZyT1Rm51Uy6lQnqDb2REt0V4IgSCKcXfWqMk9TtGs3N3iKWk8dKfgUbR2VY4ahP8eRqRMb3/725s6dbgR/lvf+taCl1yFpZGIhMHJSRB8GCl+KC4Fue6664piiJwlg+GuXiszLzrdHVt3cGi1rrFHJBpOwzHOi/PKvJ6XHyOwsx7Rv0Q0XEKf1Pdd/dgtbeTBeN2XDrHL7rEbD+PCrloCY7KLIgKqGmlc7+xIc9CKScZ5yEZqB78iTTku9+hOqZ/HEiVwiO+tHumBCfFd73pXWVIbC738xz/+UVIc8thwMvbQrVZpV+vhj917fEPhvOQ65Tjt0ps8FGOjszZtBD0+dJ5+h/xLxRb/9Jlj05/ZUHRBKITMwOI6xkMIBhozhtlTsZZ3PeqUiy380WdV2K2218bSxhLNIxDAa7UYF+di+ag/tFotFBfPf257hMMEYEeU8rrejH/X3OPIVhiXH7/IvIos0DLbVhUPL65TDAXuCiUViXTUR6lU+YNGyK9y+VU/NfYqJs7piQ+ZWUJ5HEYKZFzGRjQg/cEgjNU4osDGplUzPYMTozNxWHWYZDk1KRY6oq+gFRhzBFGqy9W41tVRSoXzatQfztVKRKFZUgvD2FKDnsECX43tS8MO/hgDneE05NaMgf7ASh9PPfVUackuTQ4cXNV2OyDb4eXgkWxM5FYdnOjeOcdp19VKTR1O7fCcbnnm2WfbaUlf6d8Y1elO6VPHFoMIwXv+iTCAGYw5N4tefPHFhU8JWjmjnu68oBu0Wx04HghSMvqSvLnR04JOd5RKXctB0aqHlj1UaqaXx1Dc72gsrlejF8oYOFfbRD35EsVSyqzI2FvJ0eDPWw4S7e9+97t7pFSl4374Y7ycrQ0q+UXLFY9wKHIxJstDDz00ec2JbJo5sGIeDUYSTo1cGJ4CB0Wim/HPNSFkGvCMwhGEPBw7KzEOOV5LXrw2lsZrMUGpR8bGxhHLG8Kkqz4b6UebeIzCWKZlm4hHPNTfeOONmzreRlpdfQ9cbO7Ak+4LJjxT6BNFLk+RM/bYCfvoiVNDo08dG4JAD0Mrz1U1KFG+WYRgpo1iw8DMVRVe3OvPIz7Njr0p3VUo9f/5z3+WLjk1SwFRLqfVqMyNfFWxdS9wrtZDgzLExgHF5dzCAVTrdnZuqRuOsFk/1bbG1AoOXY2vSrPZufYcDMdmhvexk4dP6Q8bMVIanH4zp9ZIE8/GxnHJt4pQ6KDll13Os88+uyxH53JqCOW2cI7S3bHhWVTt2cLeFCuHZlFfVzRDXsE3HOhgbFho77lSDp4ORb2u6Dbe1w+HRT6WmfKg8nZVBxptrEhMyByaD3660r1o23jsc8fW2EHjdzMm5aEsjEcOgWFzML0BsLGfVr73FLRWaDerQzksA6pRIsdm5u3pzFTthxIxmBeyI7OMUuBL8UXEXRX8mcklbSV7yakrjPRJdhEBNOsDDUvAqXnsvS36k7e1UyxCs0EiR6qclpPedsltZFWdTrM+Aytj9grVe9/73jJWsuDUOM/xeZe6mXEZD+fpoeEojBUtdFstXWHbKp3e1sMz+XnMwyMg0hbP5iWh3G93xtPIh7Z0wwO5VkfVYrPMSsV976XC21MR0lgecYGlR256ahevqmMzUAzLR1iCApDhMcbelDDA7ipKqzN7M96orxxJq7wbu7qc9y05txAbFmYm193vLv+NfKFBQe/PBm9GpCSeG/JWhpwKp9pKH+osssiiTY262qf+OE1LODOy2d21xkI+lsOUeyhZN6nT2KbZ9xifZbVzKQ1OycPaHIv82t45d3PBBReU7+TbbLz4YVCMxjuLHk61w2kc5CO6lfNtGqllxtC0+x75KLzqnxxbfSxBRClH64cjmvHITqIYa+h4XIsxdDahRN2ujoGrCFgESDctFXu7cQAPqwVveCh0XU75kpz+kQM1bn0bqwlJ7m3ChAmlHplaZvf0NclX1bEZnIEYEIFQPKUINl/rTgEG4QIvEqBm11aKdtr8/e9/LzO12Z/Rt1oYs2gB+JLL6HVVQnlEQzflZY/ZkLELvzsywK5oNrsPy3hmKPClRBSkO7MfA8VzZ0Vfxv7LX/6y/XWZjupLyHNspNw51Y4ovHKd7igcqV+BEPnLjcWOqKhju7bXqYpuvdK08Gtp5HlAS1fPbYnwPH3vOUJJe06us0kATTvinpuM0u7Y6HQXulzaZ3w9NWB3cA6ctc24k11cp+M+8V2faPg+NTvn6vXgp7tHNEJvBB42TOBKvo0YtkK7vFmU7cQuq82dkI3lPT0Q0Cho64NM9szLclFbjMdkKXfaHb0N3l5VxxbCABjvLK+hmHn9Km4rxaAptmWAl78ZrGVT7Ma26iTwQnk5QzO8mbq7xezWilMLuvqMXWCzvef2Fs3PrrWSDwoanR05e1FGLEM5UQlb0VfBOGPXasFrV0V/MIx8XrP6DJ7BxC9EdBQFNWsbPISiR534TtYMyLucfmghnmMrD2png8dftahrQrs753EOzBsMIrNwan41RWK7lUeO8MXY4GzpSnesPvSHt+C72nezc1Ffo94VGWbaXgC/LztOGwwf/ehHS+4wxl2l1TjG6r1Wz9Egx8j9aue5R1FtqxFoY1/y62h6dEYRTfv5LHlMr1HBKHDitNnhmBwpitJEsYr2PS2vqmPDJOEAMhTCNa8G+fWGVoSkvW1pzxn5WZkofpHBLNMsJxJ1Go8AVVrpt7Gt7xws4TRTuGb1XYsoyvmKeVfPcravCl6MP15DQtfraSNGzBZzKFJf9YeO8ZiNLVuaJbFhZAIw8QRWXfFBHiYMY4HtiGxg+WQutgu9XI8cPQ8Zjo0jbZws0PHTViZTjzkoeBKp2aWTz/FbbYypM30o+pf7s/nlfVSRN+dkgm3scy6GGy6YOrwVUS3G5PrEPCmhr5igol/Hvi54sCMKG/IiU5sy5FnsqYHHVvo3Dm1jd16b+BEHk2wjxkWWeWwmjL4or4ljA5idUN7ccswDe5/4xCc6zYsYLKFq+1xObHoYUzEDjx8/vmxNFyFkQLsqQAXgm/J7hx5i9b2oS4tKQwiUOJLWXfXnfrSp5mVEB6XvFvvtrJ+i+Fkpn8lLLMYqimV8HJswv5kydUavlXucjwkqciidteF8RGuNCl1tYwyiBMbghxzlfLSzZIxlUbV+nMM23kV0TS6n3SjzPXzSExGJiEAhO5Gd92+33HLLIs8Z2RA740+7gnPmSa5IoXPyl/rsrmMrBBr/tOlvNVrRZ38VtEfk8TyQx+Mldcvj+CUVuMG2J0U77a1QIp/pudFm9AJT+TibQVZz8NWup+VVd2xhDLFLYtb05gFQPbtCUZRGALSj5EA4Le9+qS/BKUnuCWpLge4sc9AT+hJkJtp9/LLgLJ+rEVhnRIyH4kceQ12zvTGh0Tjezmg1uwcXr6rdn52BjRnRK8dmKZiJN2vSZ9fM8l0V/LVS4EDBPZwZRXJfVNgYTZGhPJvHZjx3N27cuDQx5z7lZfAUsz/HbmeOU4M3OcgjWYrSw3Ai+m7nMvPbTCYcH7omRAUdEaA+8NPrkvvVhxSCMesrfqG3VQy7wwOaMIkfTGB/Evl98YMJBc8KjvppVoruZnlZacir2fTi2EzOPZ0sutbIZpz04prBAo/QJGk5NQbu+SNOzuznvgEZcFGu3IYCUxy7WHbFwqnJP3gdSZtmitgZq+jNzFFEb0p3+tQfo41SdWxxrbfHJ9veOLBdz8BDQbvDZ3d56EuD4+Qta+ViKLkcE4VfLyf4jaHqPMzo5C7hrHBQMOXUy4ST6zMmWEyYMKHU8diLpbG8oMcNLCM7MjgNqv2FAYoOveeMFv62zDk++tkXUXH0IecXuHJ0/SU/dNlaRKCS+vAzHv131C+egj84Vc/jO1zJ0gaCIuXkTQNtA1ftRNMeNfEIiGInXz5uxZyq6emkP+cCv5Dt3z+Awiyl8JMpitBTsQb3ojJFVCwnCggZeMuTr33ta+WHFTlFkRqPLskaTq806uYf/PTm053ujKW6fA3hdodGR3XRZth2BBXRmsS4iPS1+qHIjnjt6Do5MDJLFruonAYj89NWV2TjIGdLXx/GIPo98cQTy0+jc1KMk3HQizLR5Y5Ebt5J9ouw8nCcml/QNamiz7Ex5saPSKwxsc8I6aTXrkQ49Fh0s05+kLWnBtgRFpwC3n0a83AdtenJdXpjpVPdABKBdmRTMMDTgzlKliLwW3leoJf+MNGEg6PbZGSDTPGwr7dF5EGNLWQoFeVBZbvRomABi+L//uhNFPyqR2yYpsAUz6C9J+k9v9hiNyCOywv1PHYYq1/UVQzcDgugPJ8ltzEY/iMXAqdE3n2LwnjsjPVFCUxjpxnNvnolpi/46y4NvzThP1vhRCSy/QyW128syzg/uUq/IiPB7nEWDv2QQw5JO+64Y9Et/TGg57PT8o6iEnkbv3sXjxWQSWNh1Jap6Pu/D2I1oK6ozC66ggePm5g8LBnJoK9KOIi+otcRHTzjHc6iXWNaOj+CxHk1GxO+OHebG0cffXQ7Wasm+LgfOJCT66K0yy+/vNi4B6E5OCszfZicyPmS/Gxb/CDGSSd9v/1d36DV3lGLJ6+JY8Mbjw4IP71MMeIHJ4Frecp5NSsiNf+LjbyanSiOr5lyNmv7Wl4jcLu5JafXxggl6otoKpRNbs0Dq5Gs5QQYqchjMGAEForMkYjoTVx+AUK0zklZnjUrnLno33OFxi56UhjO3XlZI1pTYoOBkbVS8BAGDmP/0ckN+aeqPftmmQ9vq4zBWozJ+GzSxHLRWJbKKyhOqZlTCflooyyeH1ealJfm0kjl0ZA2564eOdB3eHnqwQPQNsyqDrEQafvD7tXd7UO7tS9Vq/e7c/6aOTYD59wAaz0tuvDIhp9+ZvCNRURHyT1MK6LTbrA4tRiL+dzuXhQG64cC/JowJetp0ZbjsrRS7PJZGjBMGDdT0J729Wq0w6/lkSSyTSI7l6KseD6vyoPHNDwkbZed84slYUycsVnDsERbCvodYeI6LC2PPDzNwHPl8gsbXgnzMLLCqXmOUg6pO5tWpfEA+RN6E6+Giaws42PczTCCjfHSXXZoufiOHE3TNQ8tV9s4F/WxXY6zPMid//erZoUPIEe7+GTXW70dkgf38ozp09I5+++eo4cZafNjT0nDR0oc9s0SqdkgqteAC4BIBMuvTcw7W6IMSgpI6/BxecfLMk49wEa7Kq2BfI5f0ZOIkxEqjM1miNDe/d4WRlgMsY0QulVF6y39V7s9TIxBYXye55ILo/QmNhG7yIlxMaBmOtGISctjoJNtfetPvkjy29LKqsKPgvoVFOfhTFumPaAqymvO/tEAbNGXwLwzNkXVobNdtQk5OtokIEc2rOiLDMmSfXQkx454GTIk/8DqtKnp0oP3z6/rDU87nXJmfh4xv7vcUYNX63oYXsx6QldKE9fxARDKQ0lj56l6/9Xitbf9GIPZ0H+Td302ErOe53y8M9gXxsHYq0rJIAdzIWMGpJjU/H8HVbnTB7iF7lTvxbgbMYnrrRwDP5Gg3ex4dtKKws/gN/7icSs0B16d2cvR0Bu25tNVGZmdUGQUu2oTcnS0UcgGqrIK2+5Mjl3x03j/NXdswVAM1CDjd9zinqP7PiK4wVjwzlBEn1vlpWI4Nr8kQdCRoO7N2LpSsN7Qfq3adqYXoRNRpxmPvcUkojW7efG/v9uJ916p6GKw6mMVq55g5BnOrt3fK72EjOg53KqlFTlW67dyPmAcWzBbBulLdgSvt8JIbHPLJ0aJHFB8r4/NEXgt9KK8yJ0jE4lyb8YockB+Vkck2BeTUfPRvn6vhhPr7xEOzvCnv1HpJ/qEavkU/22bbrzzKgR/Pcz8/QTba0JWFBP/G5rHEWICsmFgOSXqIM+6DEwEasf2KsqFIZjlJUv971KK/31bYlwehzHVZeAgQCZ26uP/H7A76znKyPMOHE5rThoRqB1bIyL9/N1y1M6uB5AVz/Z4GdvSpnZs/Qx+i+TJgYyuz8+sedVPEbV5jGawPWLU4pBfd9UGXI7tdYdww4AsOS1jPC3PqXF0XrN6vSSiG4Y7KL+KrG1irZjffPG+Kpl5rEMaoS6DA4Hasb0GchIRiNDisRavVbX6Q5uvAbv/L7skI4+YcHLOOTXHOq82ONShdmyvkZwYiahAqY3lNRJCF92GM6tl1AVQA/B27dheQ6HUDu01BL/FrmsZtQjUAKtWbx4MMIHU7NQI1Aj0HoHasfUew5pCjUCNwABDoHZsA0wgNTs1AjUCvUegdmy9x7CmUCNQIzDAEKgd2wATSM1OjUCNQO8RqB1b7zGsKdQI1AgMMARqxzbABFKzUyNQI9B7BGrH1nsMawo1AjUCAwyB2rENMIHU7NQI1Aj0HoHasfUew5pCjUCNwABDoHZsA0wgNTs1AjUCvUegdmy9x7CmUCNQIzDAEKgd2wATSM1OjUCNQO8RqB1b7zGsKdQI1AgMMARqxzbABFKzUyNQI9B7BGrH1nsMawo1AjUCAwyB2rENMIHU7NQI1Aj0HoHasfUew5pCjUCNwABDoHZsA0wgNTs1AjUCvUegdmy9x7CmUCNQIzDAEKgd2wATSM1OjUCNQO8ReM3+lyr//Vy11P8bUBWN2edzItRwv5f/xyXaQxpIDqSv/cXfYPi/QfvLNnoz9v6SR3/p3Kvu2IDrf9b2HwaHM/O/ocf/4RjX+mvAryXd7igWjLoq6Pl0twTtnrbvbn/drd9f/NGtYcOGJfoWuDm2qnPdqdvdMauPfn/ZhjEOzWPPnZTxd4e//pJHd3jobt1XzbGFUowcOTJNnTo1Pf744+m5554rgvQ/bi+44ILJvWnTprWsaN0d7Gtd3/imT5/eEhsvvPBCUfSOjA6eI0aMSKNGjWo30pYI50ovvvhiUe555pmn4N9qu1erXr/wlw17ypQpBf/Ro0cX7Dg4GMbE2hHWxg1vk7FpZGb+j647q9tdnPrbNvBK74w/dKY7PL700kvlP/emLwWDjMVAL6+KYyO4mCn/9a9/pcsvvzzddddd6bHHHiuGteSSS6a11lorbbPNNmmllVYq0dtAB667/Jn1brnllvT000+nTTfdtOmsGcbz1FNPpe9973tlAvC/xbteLZTzoYceSp/4xCfS2972tjQ5K+zQrLxdFQpu4vj+97+fOM7Pfe5zaezYsUVp+9JQu+Kjo/v9yd/L2Yn9/ve/T1deeWX63Oc/n1ZfbbUy7kceeSTRya233rpMrI1Y4zXk8uSTT6arrroqjR8/Ps0333xNZdjR2Dq6jnZ/2gb6JtQbbrghffWrXy0y33zzzVsKIMiD/p166qnp4YcfLm2XyLY6IzvJgaAvHWHqer87NsAyajPGn/70p3T22WcXr//GN74x7bjjjuXef/7zn3TFFVekf/3zn+mgL3whrbHGGqV+FTx02ksGvJkZR51oF9+1i2vO43r1mutR3G+8F22iTuN916OOe3HuyBFdc801xRGdcMIJZfyi1mY0KDmHP3HixLTEEkukZZZZpmAU9PQDT1HuYostVowrsKjWUa9K3z2zLeNEe4UVVkjzzjtvewqgsb7vinZBJ+jH97hfKrb9qd6L643t4rv7Ud+1nvCHRtGM3D5K0Izv8OL8//3vf5cId5GFFy4Y3n///WnChAlpk002KX1X+Yq2wReZHHfccWmBBRYoE3Bj3er3xv6DVuNRm762jca+fWd7xioSxr8+9e1elW/8RXvX6aJVFfuki1ZVs2bOLMOI9s3GFDTiXkd9xP3+OPa7YzNIn7/+9a/pt7/9bVpxxRXTBz7wgbT22msXg3dvfJ4BL7roonL/D3/4Q/r0gQem0aNmL7GAQhCcg7q+y8f5+F4tESa7Ryi+K76bedT3cS+ul5PKH/e1szyJXIxr+i8KkesSbtCrNG3vzz009BN0brrpprTuuuumZZddttCptms8f+aZZ9KkSZPSO9/5zvTud797LuWL+mEU8T149D2WV474hxt+nnjiiTL7brXVVmUml3cR7amH72pB36eMNR9HtuECz6AbfXIrreCCXsiy2qf23eUPrzEubY0zaLruu+KaqOXArFeujxkzpoxL1HvbbbelAw44oDh5S65oUxq2/bHcf/TRR9M/88R76KGHlroiX6Wxf9/h49OMVhvJcnDfp7e2Qdfg2qxv9Mnv3nvvTauvvnqZDPHWxkAaEW3zhSI/fOdz7eDGER5++OFFn8lNqdpVudD2J/QFfbwojsEfmr7jB23f+6v0q2MzCAplpvzjH/+Ylsph7J577pnWX3/9st43QMMH2BZbbFEUR1S3ww47tNfRXm7gwQcfLMsn63yRCuXUPoq+5O2AuMgii5SZxjLDbLXUUkulhfMsDXBtOA59olEtQ7JyTJk8ubTVz/zzz1/oEYIZ2xKRAek/6Ok3imWmPtznQBjDoosuWoTJiERfhKke+o3FPQZjrOhygvJBxt+oBL6r42PMwaOxOTe2xRdfvOAPA/XxJmLDmyW/dvfcc0/BVf3gT3tKaoa3ZDWGqRmX23OkR9HRHZX5Ygit4gJ37USqET3AkGz0R8Vb5a+MO9fnkIdnOT7bNhHATiSrH2PTp3EXub40uWCBf+3pxt13311WB/p/KstkVNa1RpzVNck88MADhTZ5PPvss4UWXaCfMILD5IyRJSr56wfuHRV0+8I24GmZ+PzzzxedMvboWx94dO+///1v4YttwJn+T8/4PJhxEJWF3bgPjyKTjJ0xhC3QCRgbf6P9wA0OJocFsi5FYKIefWebaLEpPKIZetkRRr253q+OzWABIadG6Nttt12J1JwrRenykQIS8rve9a705je/uTgm4ANbGHzuueemG2+8sQA0JivMKquuWiIZy9kQEuHKIWy22WZp1Xz/zDPPTLfeemsRJoPdd999Sx6PgL/1rW+V0PpTn/pU6YMCKPIwIkZO+PM5D4PWw1nw5+do8x//+EcxBjyNGzcu7bTTTuV+GUMepzGccsopaVi+v0WOQM8444yiTAyBEDmOaVkJ9/3oR9PBhxxSojHYaB/FOWEzfKG//FfwVq1XeM08u0dxKM2f//znkv8Jp8hhbLDBBgUnDhJOaMttrrfeegXLk08+Of3ud78ryzP9mVCkB2JMF154Ybr00kvTbrvtVsZ/2WWXFUf0ta99rcjTJCRnxUl0hQte3/ve9xZ80YSJPj/4wQ+mt7/97d3iz/gjyrz84ovT+eefn+64444iA86S3OgSIzXmEdm4r7zyinTEEUekn/zkJ8Vpf/azn00bbrhh4cESc+ONN06uGTtefegkukceeWSZZFbLeTmYWcZPmDCh3L/22mtLxCV/yoFwrPLFxuoYzjVkHEf99MY2yN2kdM4555QcIechtbDmmmum97///cXOjJ1j45hNrNtvv32REwdlciN7thmR6vLLL1+W2XLd2sEAffYganvTm95U8DjmmGPSlltumT70oQ+162/U/ctf/pIOPeywtO4665TxyUn++te/LhMDLOCzTr6Hx3HZjvDYqNuBUW+O/ebYDBT4lJ5y8NJvectb2nmtDsa5GcJSjbKFMtycleX47ITQYQCiDFETg+Kcjjzyf7Mg1yiKSngUS19/+9vfihD32muvEi0Cm5GuvPLKZcYwq6pvtkOb0XNAIku0Kfkb3vCG4ph+kBPtnCpHRrB4Q+ub3/xmUSRjwrtIibKgc9JJJ5W6IlPGK+KSW7T8e/+uuxbDgE+1+E6ZYhnKMYmUKP/Mthm0Wh9meDd7MlY5PE5pv/32KxHKrRk7Bg8TmwT4EoGJIjnZ008/veDNSaljOUSJ8bxSxmlynnkZjj5MEuT3vve9rzgLfHz3u99N119/fdp5551bwsVyDmYmLn2KcMhFnxwtJ/58nvFb4i/rAYM477zzytg58IMOOqgYjYnwZz/7Wbm/zz77FENWl0PnmMheRPOxj32s5HU5Pw7N+Bh8VS7kKq/0kY98pKRKOG/LVvjBU174O9/5TpGxidMEaoIla7lUjpSzaDTe3toGPun5scceW/Rxl112SausskqxDRPz8ccfXxzvcsstV8ZDp0Sc0kDkQO/VM8FwTtrSI3r9wx/+sIzZZCMCowN0cbGMDzzY3+23355gy/HTz4jk1BWtLpoxdc3yFy9kvscee5TJLGxMcPOZz3ymyIL9Vf1BVc97et6vjo2hUmDOjbNg5J0NgtOgBBQIgL8466wCxkdzlAMcg0eTcn77299Ol112aRbKygVEToUREqJoy6wAeH0yesaLPtpLL710MtPqg5ISglmLYNGX2zL7/epXv0o333xz4iA5NvTcJ2gGeMkll5SoCD8iQYpAYCIcMxoFZgB///vfi5AZ36Z5F/OFzMtcyp4liDaHa/ZlaD/96U/nkitejcWMZxIwDs5B/ojj0R+c1sk5TLO0aA4mlByPlh0RPb/nPe8pWMKFEor2OL9huQ9joez64rz1J8pSzMCc/d57790SLrGkNTnF7iNnD1uOQF8MZ1IL/KlLDtr+8pe/LDvMHA+ZmipELGiL8qU3RE3kTAc5GQ7ULrxJ9LTTTiu7yupFRFsGmP/AkIw4K/jQBSsE0aBl+N3ZUf7iF78okZzJBD3y5qTxx+GRjWi50WjVI+ue2IZ2ZPKb3/ym8MXRsg2FblvqHX300WXSIXNjmJhTCHTW2LWHIUcvzx26zmlx+HZP5RJtqJA/fYTB2BxpTckOkY74bkKwxI+x0Fk26J7JwHWylfpgC+PzKoaNWU2pR2dFtfCCfV+XoX1NsJHetAwsQfDkjNKAOyqhAMAX2pt9Pc4gUiIgBklpJUEpKecSCnnfffcV4Cx3KZlZSV1gMiwhMPqET+AExMjjmv5sYGy77bbFGNCzzOIgCUU9dIyFUM1+DAZP7hEsRaX8jNcYfPBg44CBUZwXs1IxFG2qxTfYUARjjWiMU6p+9KNPCmy2hA1HY5mBJv4oLuVx5HQ56eCRsolcRFoMED6wggWFDEfPCfpwsDYw9Gc8MLckhXGruKCDTw7EGPEf8sEb2sZvbJ3xhzfGCVOpgUysLJ04KtGeCQOPnBtZGBMc9e874+actSd/hhvLdNcaC8wYvAlCPk5k4zsZMn5RkCicjmhvXPQRvvrSjiwbZR399MQ2jEe0dt111xX8I19NN8mSblvZwJGe4Ycusxc2KK8maqOLnL0VCsdHl9iVdA55sxOTorQIevo1FrT0YTXheT4F5uqio650DDnTPTK7JAcAlrx008TLoVn+o9PMFgKf3hz7LWIjTIPzzAvQGA0AKEazEsKPUNluFfAtCbUDqmPU4yTD06NPkBwOg9OHvgmH8xEi75qXgISjHaG4zvBDgJZFZn3Gx+AJyX2C+fGPf1zo4Vv/+mUY+sBXCFw7s6d+PF5gx4nCMyyRo482eGgs6BoHRdKvmRQt7ZvVxzda8KJslhUMiXJzhGipYwZVB49mX+PeKNPlTPA4MvOqPiWn+HJU8GP0ZnXLHNfwwSn0BBd8ii4pNf7woz9OkhPg3Frhj9zwyGmT6ZLZeZDbxTnPpg8FjhwazKZmDBw5TBEpHdA3bHw3OZnwcqOmGKPF8DhFPOqbjGFj0uUsOJbQaX3hwwf2nHfwVZU3uq531zb0jXfLObyQ+4knnlj0EU2FbpocTQCuGTv9g9VC+Zo+YWAFIicsJWGSEKH5sB+ywB869IUDIjt0fEx26Bu3PqJPfalrE8bYPbYlbyv/K8JnywIVqQN6qU5gV8WnL877zbEBxqABwiAoQ7NBqDciAyEndPXVVxcDEN2YAczEZWbIwkJLXcrzZAYb6MAhbAbNSMzU6s/I9dUjINcJkjAoGx4YtQQw4/LdA5ryJdb8lJXxEaj6eDDzqIcHR/T0zdFyvgQ0sW22ap+FsnTc50wYhojFEsYYmhW0Ka2xUFr8GlvBMY9ljtKGrRmQYorYhPQRyXLQ+pQc3iznSsIgRB3GZ3e68JHp4JGywmJ8jkyNzXg4WDzACW8+jBzu3cFFVGMW12/MzvpEh2Fy4K3yJ++DP7LhvERbeAzZhH4YPzkslnXBWOiAPuCKd7jBWVRV0iNtkcccGOcvxkyH4DZu3Lji4PXBydNn9EymDFvdWW14PpPv0V9Ogh42liLTXL8ntmH5SF500thhSaO4NTi4blx4M2Z8kEF5Vi/XVR8GVhb/8z//U5bLdN9SW256//33L84abiYP4xaUGAdaJnQTLhoxDhiJItsnisyLyd1kILcmorX6YWfSQpamu+Xc3rxtqY1GfPrie785NoI2cEBzNgyfQhhsKLj7APKIRSSvGSdQGDkl5hQJTFGfYO7PtCgmQ6QcMYPbCSNM9Itjy0dKybAiEkHLOaWgnJRe3xzPW9/61tKHfvSPLiGINvCu4M11bY3L+CgOB0bpfNdewYNZjILIL4ngYuylQtufwIGxo8PYKGbMnBmAavWCh3FbPtuxkoO0cSC6VGDsKXv0ljeDZhxjrBwyZx3GqL6IjXxsrqhrWSOiodTqBs89xYVzZBzhgNBjJDBmhGSGB7LojL99ci4Nf9pxbOhKfit4oxsMkpM2eZGP5aGxhA7QS/KTz1s9RxT0S1vXqyXowSKilOLEsizw74Pv4lhye/Xzn3K8N8vbeBh68Ful3xPbkDNkG8Vesi7SLTlVeoIXxT0rF7J1XaEDsDaxGCu7IWuOHyaOoihpGCkGmwr6Uei1SYI+6gPmZAT3sirJ2KLJ2Yki0fJmAr21weDIJjhVUZqnFERvNrU4fW/gkFcVm9JxH/yZezrpA6JBAhiAASBh89oUgbAJgXFSdgOVh2KcZgPXOIgQivoKEAErGW8JIUpRXFMYIbqUjOBfykopcuHEFs2CJnD3PGdDSc38eLrzzjtL367JexAa5wd0So0WvvVP0UVJh+RHNihRzIpoWFZpWww4tyFYRsbRLJVxiHEUZit/wogYnLHADDauNxM6fvBJSdHeaKONShv1taNUNkIoaOQWI3IsUW7GE4/o4JECG7sxw49RGjc+0EdXca+7uIjKOMyQi4SzPi1z6UV3+LPbpnBa+DB+tMgAfUfy9BjPJTmv49oLVR3Ijs5YTDZ3Z320VCLTjgqZw42c8UonM4GCsXb0R9pAvwqsJmanQT/VDwfRjH53bcOSjpwVDhtfHBZ5kyPe8Cl3ZcfaRKwPk2pMLPAw0Xucw8YGLOgBhyTlYJKBDR03NrbDpuBtMqGb9ITM0NI3G2G/cOBM5898kImdaU8uoEOH2YWIW994Y9vssb9Kvzk2g8G4tbiEPAWTqBRJABdI8hSchN0lAHojgZIAQZREUMLjcFxm3rPyTqnHDAiaIyEEyyZKFOt+YIVSlqglz1ZySQTpY9ePgaPLADbPkZ8ZhUBi3h6XoxVLHQ5Cf+4xUv3L6UiA2uEhWI6A0yJY/erDc1ba4I3iSGxTRvcaS2BFqSgQowgH2VjXdzSG534sgxU4coqumxXlXRQGABM9mm0pqgR4YKFfys+xcT7qKzDjkI2vkY/u4kIH4EiuxZnmPmHGKDlOkw6+LQ+74g++2i611NKFN3nYCy64oIzN+OTb6JJUhigE7yKzdh3IPOCHsRUnlccKN4YGi2rBk2siXakJhoznyLuKROixaJ/c1CeHn//858WZyGGRO3k20va9J7YRAYG8nvFemMfOcdEzOSyP/ZCljSGyNC6YitZEXeq5LtdoSXh93gF1jQ3B0vjoFMcFM22rOmAscOO86fwDOVLzHqmNFKsFEaqNAzYQTp390HuyNxHBTBQdtlLFvC/P+20pikkCBAanYRbl1H7wgx8U4My4hGDm81KunRgzC8WlRMJU920LW5szAKBQIOt2jg2AFM/sY1ZRh8KUkvvmuGyLWwYyLLwozgHrcRKhs7zCvFlgHqCNKIaQPLbhkQvPXeGNk0KDA8Yvw6E8+lfMZvo3bnzizyzOeCRqGbJnm8L5lUb5T4nAMl3j5DTVgQGlazSKaOPI+a+66mrlYWAPQqpL0e0Mi4gsD9CQMBbFyaXY9dI/nIvhZ6WT2+RMyQT/JhQO44tf/GI7Hz3Bxc4d+ZRlaMYDJsaFPifEwOCDl1b544hHjx6VPKrC+TIsGyfkImqmNx/+8IfTMtmZqivyrOoAHoxbn5434wi//OUvp3FZ3tMzjXa822TImdALu3roHHXUUSVtIfIwDo+cwN4YjYGB0ycpjNCFqsziXD89sQ2OQ37MxIr/W/JExlmZ0ERcHv+AgWLslpe+W6UYs4lNW88mfvUrXynOiEy058S8GWTMbO2SPOl/6UtfKjIzFrkywQkcOCyBhnFaaup39913LxNuFnTZpWe/8ryXZfnYvODgLFs//vGPl9VWV/odWPXkOCQL+uUZ06elc/bfPb8iMyNtfuwpafhI72nOmdfpCfFoQ4jAMyhe2wDNfGYRkRqwgRkDpXxhfGYSkZL66jJAnyhmejMlAzGLhmIyxIl5ZgGu2YPQ0VeGDx+RlfKhIhiKWG0XdIMOATMYszx+OTgKgL5ZyMczVY7r5ZlUHg3/MQazuYjPDKetnaHGoi+KI2fGUeKXk2SYwUdjG/QZqFnVMh6mnLXZWfTFsenThoqoDW0YWn75rj8yMTMzSIbpnnFxjoxC20Y+gp9WcNEnzNfOBjFflk/0iWeYcvRkCTtyJsuu+NN/jF2EwSDplEhCZAg7Y9EvHarqAP3Rl+exbsoRDscIC4ZpskO3WvRFBvpAh47Jw4pq4ARPumfC4zToGN0gA/34BF5VutVz93tiG5yivjkXOmMFQu7L5b49hmHskzI+d+akPseHLyX4YVM+5Oya9iJdOh6TBJ0nD+3LhlyuR076hYvJX/RIh/Chfamb79FN+mdTAc4mOFiTN72CH30IfqqYdOd8yJD8LvO0qenSg/fPvzc3PO10ypn5Nbv8alwWZr87NoyGMgKc0tlB4gQMrHxvUAL1DR5AQKQkzhX1o0Qd9QmkWtSP/qpOInihUOg2tpuDRlZ470QSAnr4VR+NEAqnrMT1anv9hxCDl+r96nmhE3jk/roqMY7AMPiDj3P94skYGW71e9DGk7pVHHwPXo27WbGT3RNcuA7LaH2gHbLsDn/4MXbyMyY0HNF0XjUY75Lqz3XGacGprrZ0wrn66DUrsEU36sLJR30YBZ3gBw35zzkXts0ov3JN2yrm3bWNaO9I3qGXIdsqztGr/hTjUnxXL+wk5BF4lkqVetFn4AKHal33Ax90fXz3CTsJPoN2T44dObZ+XYpWGQ3jMyjKpDhX3GscpO/AMRPGvWr90jD/oWTW7M1oVAEMGtEfIbjfrF3QdrQMUdSr9l+l53mwzGz7uEqDtj+hOOoTbrVdtZ7zoKNOZ/WinTrGoTiv8gc3+AXW8b2RNmNHo3q9I9yiX8ee4sLgYdLYZ3f40z9+q9gWPchyQN+9KJaX0zIO1fGpG3rVlUyqOliti55X3WZ2oZ/BR2dHtEIfQ15VWVbHg47vVb5cMx6lWrcZzqVS/lOl71pj+47koV30UcUwrsc9R3hVMcOPj3tRL/jp6+Or5tgw3jigVgZXrVM9rwIRylC91qy/6v1GXqr3qufVPqvn1To2CvLgqpfaz6ttquftFSonndGpVJvjtEqz8byz70GkOIK2iab9WguK10g72laPHY1H22p7bZpdK9fda+DPdaWRRulv9q32vx3SbZNXI432hpWTqBPHuFUkXpF74/2o18pR22r76nlH7at1qudR37Vm191vvN7se+O1xnZx3zHOo+/Gus2+V+v29Xm/7Yr2NaM1vRqBGoEagVYRqB1bq0jV9WoEagQGDQK1Yxs0oqoZrRGoEWgVgdqxtYpUXa9GoEZg0CBQO7ZBI6qa0RqBGoFWEagdW6tI1fVqBGoEBg0CtWMbNKKqGa0RqBFoFYHasbWKVF2vRqBGYNAgUDu2QSOqmtEagRqBVhGoHVurSNX1agRqBAYNArVjGzSiqhmtEagRaBWB2rG1ilRdr0agRmDQIFA7tkEjqprRGoEagVYRqB1bq0jV9WoEagQGDQK1Yxs0oqoZrRGoEWgVgdqxtYpUXa9GoEZg0CBQO7ZBI6qa0RqBGoFWEagdW6tI1fVqBGoEBg0CtWMbNKKqGa0RqBFoFYHasbWKVF2vRqBGYNAgUDu2QSOqmtEagRqBVhGoHVurSNX1agRqBAYNArVjGzSiqhmtEagRaBWB2rG1ilRdr0agRmDQIFA7tkEjqprRGoEagVYRqB1bq0jV9WoE/j8i8PLLedQ+g6sMH1zs1tzWCPQcgVmzZrU3HjJkSPLpr/Jydgg+UYYMHZr6r7fopW+O+G7HZ9iw7NfyONrGE/f6pqf+o1I7tv7DtqbcgEAY+lBGnp2K7+FsOnIyHbXpqH5Dl+1f9Tlq1Kh2ZzZz5sw0ffr09vt9fTJixIg0fPgr5jVt2rT2sfakr8CrJ2270wbew0aMTGlWxmfq1DRz6pSUQUvDMnbD8niGjxyZZvYjbt3htbO6ryDfWa36Xo1ALxFgMAzd58UXX0wzZswo5/PNN185973RWRUjyxHDsPyZPHlycYThoMIhxrEz9rR54YUX0h133FH64mSWWXbZtNKKK/bK2XTUp/4eeuihdP/99yfnnOiaa66Zxo4dW84bx9kRnbiu/swcbQ7txwhTX7Od2oj03MMPpokXn5+euum6NP25p9OQocPS8DFj0/zLrpCW22LbtPia65S6s9uIgtti0SxjTrA6PjRz5Tmut1/TMuMzm06lXr5Q6pTxih67nzGrHVuBtf7TnwhQUhHMs88+m84+++z017/+NS222GLp8ccfT+985zvTu9/97jRmzJgSQYVRaBMO7eKLL07nnXdecRYrrbRS2nTTTdPTTz+d3vve96ZFF100Tc9OkfFo61OMIg/IOccnUrv77rvTVltt1T7M73//+2nVVVZp6mi0qdJCL763O9JMm6Nxr9qfesrvf//7dPjhh7f3d/XVV5cxc3JRom3QrtKJOu5x6sccc0x6z3vek974xjemqTmSijbRn/pVvqvnQatBZcLCAAARTklEQVSd93wh2jlGv6Kxpyfem6754j5p2hN3p6Ejx6SRy6ydXp4xPb14/S/T4z+YnoYcM7TdsWk7YvQ8Gfv8L0d4Q/KkNSuPb1aeOHIHpdvhouTsvF7OmM50PRcR4dDhs5e4rum/Wk/dobEEznRm5PF2t9SOrbuI1fW7hUBR2qzwnNgHP/jBtPPOO6dvfOMbaf755y9RFAfg+umnn54WXnjhElExGJGOyOqkk05KX/nKV9KWW26Z3vSmN6V///vfad999y08bLTRRmmJJZYohjEyG6Woj+NwPisby/TcPuisvsYa6ZprrkmPPvpocaTzzDNPu0HHgLJ9FmflHieAlggTjaA977zzFqNlfBxMLDnxrA6elV133bXwfMMNN6QDDjig1AsHUirkP2hrH7SdK7FEVh8vTz31VDrxxBPTW97ylqR/Dl9/6uGxyjda2nHmzn0Cz9GjRxf67ruuf5PC8EwPLU7p/ksuSNOfnZRGLLFWWmO/g9MKm22Zpjz7THrhsUfSfRecl0bMO3+m8XJxPC/PnJEeufFf6cXHJ6UZL72YRi64UBq7/Li00Ao5Es50MyPpsZuuT1OeezaNzvcWXX2tspx9euI96dmHHizObIm1183H0emxm29Ik595Js2z0EJp3kUWTU/ec1ealqPsBZZcKi2x9npZMDlqy/RaLbVjaxWpul6PEGBUyvHHH58++tGPFsf2s5/9LN1yyy1pww03LE7KEu273/1umjBhQjFCTmV0Nugrr7yyOLWjjjoq7bPPPsUZciann3FGOuTgg9sNlrMSkVn+iQqXWmqp9IY3vCGtsMIK7U5iVHZ266+/foma8BMRjXOFsXMYDPzGG29M9957b4kKV8zLVc5k6aWXTksuuWS69tpry1Iaz/i33LznnnsKveWWWy6tuuqqxdmISFdeeeXCz+we5vzLWT6ZHdYdt9+eHnr44fT4pElp8cUXLzS147Dwg7Zob/nll0+33XZbuvDCC9vHtM4665TJAGV8X3/99en2TI9zRWP9DTZIY7OjQMvyH50pU6YkDg6ft956a8FtrbXWypPGRmnY0CFp2tNPpWELLZvSjGnFYT370ANpvsUWT0uuu2FaPDuYl558Ijv27Ohz7u3mn/8oPXL6EWn6zVxd9j3zpTT6zaukNT73jbTSFu9I0ye/lG4/7XvpiR/9Oi1x4F5pkcOPTUOzw33shn+mW/faN82/9epp4R/+uTi2u375k/T4iael0Vutnma99Gh66arn0qh1M93HU1r92J+kNXbeZbazbNOnOdGc+1vt2ObGpL7SRwhwFqInxs+IjjzyyMRJcTjHf/vb6Sc//nFZYu62225phx12SI888khxIIx0WnZgV111Vam75557FgNmlJasO++0U7nP2EUeP/3pT9M3v/nNNG7cuGKwjH/ttddOv/71rxNng54yJdPkGBsLPjka9374wx+mI444orFKcbrve9/70rbbblvufexjHytO6JJLLkmf/vSnyzXR5Ro5MuRI8IXfiOCqBMOJnp+X5J/4xCfSggstmDZ+88bpggsuKNWuu+66djrnn39+Ouigg9L48ePT0UcfXSVTnBwnLqI7+eST57qPX3hzchz/dttt197+Xe96V/rjH//Y/v28c89NW+exLbjGOumho76e5tv1nen+M76dHvzVSWnk0qulBVZdMy379m2yg9ugRGsTL/1beujkI9Kodd6WVv7cnmmRHI1NvOCc9MQVf023HXdgGrvieWnBnJMbvuDC2VmtnUYstGjpS9A1LDvW0RuPTaOWz54rO1PF/dE7vjUNn29MWnbHQ9KowxZJ9//xrDT1yUlp4lnfS8ts9Na0wNLLpllk2YJzqx1bgbX+0x8IhAFPnDixLKM4mAceeKA4uHlzRHbggQe2L/ksM90LR8Q5PPjgg2mzzTYrzoyD4Hw4C8tPyztF5GVpuvXWW5dIxGbEHnvskfbaa68S7Yi4tC3LsWwQEUE2jteyjJPi1OSzGL6IiUOWy5uUIypR20033VQc2SKLLFL63mWXXdJqq61WnIa+Y7Gkn9Jn5nmuku8ZH0dzQXbCoklt999//8QZ3XzzzcWxGRunz1ly/Mcee2zaZpttigO2RBVBcqB///vfi1Pj3HfccccymZgUTAjjsrP/0pe+lOQm0bXk/+1vf5suuuii4vhNAMY4Dk7ZsY/bbIs0+YTj0sNnn5xmPX93enn+VdPUxyamyQ/enh4+7qtp7ZPPSKtss32adM3lafi4tdI8S62QVnvnu/LycbEcyA1JT199QZr27MPpyfvuS2NXWKnk516e/FR6OY83Cr14+cWn08vT87I9AHt5Vprx1H1pzGo7p9V3eHcavcCYfG9m+s8xn8z5uFHpuUceSgsut0LJ03Ukw6DvWDu2Khr1ed8ikA2YEo/KM/RLL71UHIVcm3PLLlHEfdkA5MpiiaR+VXEZdxT3FNc4HUd1bST87W9/S5deemnJo3FySjGgtjZxHjTc1953DpPzs/TFy+67757G5nzfzOw0lswR0amnnlqcqeiT4+WE1OecFlhggRIRoeN7Joh0e9/Rn2N8xCj6fP7559OVV1yRbI7gffMclSkiR7Twt+CCC5Yo1PVlllmm7K66j5b7NhZEejvlKJZDF9FqK5f59a9/PR166KFpv/32K05ZpGwJDXNjXXfddQsdzm9GbsOxjZpv/rThRz6ZVhi/TXrqvnvSc/femZ66/qqcQ3shDXv7wumBv/wuLbvx2/JKNefyssMavcRSZWk65fnncn5sbBq+0BJp+hMjc57uqbx0zNHV0OG5j5Bhxiafz47RjKhSwKZexmXGlKlp+oipmd7CJTqcNfWJLAuOsWnLCpFXTptMJ6/crM9qBHqDADUUUdh9ZHwcmlzZpz71qXTOOeekzTffvERVTzzxRLL8El2pT8dFUL6fddZZJVqS5+IMJNh9ODPOTS5s4403Lo7t/e9/fzoj59822WSTwjZHhI7iKKHuWuN3dDmKcLj6kkgPR/WBD3yg7MSqw6FxKPpGMxxs0ERLwaP+ov/qd9cee+yx4kBtpIjC8L3tO95R2lb5xkMsn/Uv6oVRYKF/j7LYjNEOb8EfB6xEfZOAc1Gw/FzZrcw0OUdOnGO5/Q+/So/dckNaeNxKafXtdkwbfeJzaZOvfCcvERdIGZBcJ09WM2ekEfPlTZQR86WpTz9ZJhcOcXqW78znc3SWI7ER8y+YhgzL2M/KvI5cID828kxxUnY/bbzM5aMoC6dHxhl/9eTzyGHY/MulkfO2bfa06NvqiK2Ivv7THwiEIXkk4wtf+EI65JBD0nHHHVcikIl5eXrmmWcW58XRySOJJko0kpkZkY10fFsEc8IJJ6R9PvKRtExeCnIsllSWhyKdF3JSXDk4byZ4nGNSjgg5SsVSlgPkYOShbCy4Z1lmaSnRzllYYnJmHqWQJwuna7mnvZ1NO6pyaeoZl2UzmviR01PUDSekb0XeUJFn1Bfnw2HfddddZQNFbszjLngTtcJKmyeffLJEg9pyXgoanJg+RV12iEWnHpkRlb0tO6zt8/JWHyYKS/0Pf/jDJdq0eYDuc889V5ztf/7zn+J8bSTI0+VBZcfycnr08gvTXSd/KS2188fTgqutk0bnqOnF/z6Sc1vT0rSHr0oLbXhQmnfRxdLCa22QHv/Dd9Pkh1dI9+Wd1EVXXzvdd9H5xUEOGz08LZjzn3AasUB2cKPHpMmPTEy3n/uHNCovMR+56Nw0arUtS3TW7uBy30NGLVg2L+ykTnvxhfTAub9JQxdYOo1aYrm00PLjyubBkPYGBZIO/9SOrUNo6ht9gQDlFmXIRTEqyfcJEyaUJR1Dkx/77Gc/W3Ja03I99U3KjNcuph1U+TJJfd85I85D1MEgw5HIRYncOKAoEvz//e9/S4KeU/IsXBSOMIrn6jhRHzu3e++9d3GylmochIiG8xA9cRrbb799+sxnPpM4B042inHYYZR/4ySrxdJQEb1e/o9/pFXycb311ksf//jH089//vOyNIz6Nlk4fjkz0RdnZ5PhsMMOK06X07vzzjtLdTud8m8i4QM++cm0UN4FHTduXNnZtWtr0pg/L5fPzBFhPCajoUdHonCQy2VHNC0vHedddlx67spJ6YHDvpz7nl1DBD1qw5QWHr9fWnuPfXMkNiyN22Kb9PRtB6ZJvzwx3Xrl39PQhXJw9mR2wtlHrnbwqWmRlVYtznKpTbZIjx59fHp5yzXSbXkndGimNXrb9dPUf96Uhq+So+dZ3yqdcPpDR82fpkx6KF29+ZYlah+2Ro60Fx6b1jj0uDTP2EXy8nd2rnQ2V53/HZIJ5ufvpqVz9t89h30z0ubHnpJfm8jhovVuXWoE+gCBorRDh5ZIgWPyWMIz+ZklEZrHMlZfffWyRGLEHFuU4uTyd7k4xudxDo7FLh+jjQS++5dddlmJckRDdks5PA6Vkbsm6a9P0Q9+FPSdS6Cj5bvICX8ch/oe29B+A49OZH7xKLKSo/LIilwhJ6U/yzzOUBSERiZYoqDoS1s5OXXkHe/PzktuzeMq8mfocOj4tkFi0wB/lq4izcsvv7xgwdGNy+NSXzvLUpGcyNJGAP5gakMGHf3CzpgsidGMsYtmOVg8Q2V6jpSeuvfu8qjHlMcfK05s5MKLlUc+Fs87n8NzFOuVqqGZJ8+uPXrLTen5B+7LGwZPpXmXXDaNXWX1tNjqme9ZqBn/rPKs25P/vjEvT8ekxfNjIxzjMw8+UB7zWHqDDcsDu9ed8NX0+CW/T2PWe3tafodd0kv5uTnL38XWXDtvQuTn4iyDmxRvJcyYNjVdevD+eak7PO10yplpeH4AuHZsTcCqL/UPAgyKIXEuop84cgoMraPCmWnLcajHOJ1XvzNeNDmByGupqw5Hod/IpTX24762+sAT+q6hGbmsan+u6YMTivqFZu7PQ8Ho4LlZcU87tKvjQgfNwMF99RRt3NMvvqJPPPte5Vub6B8N99HUPpxaI1/w10aR4xqWx58vFAemLSeWiZSIKTPe7rCHDM2vu40cUZaIgqLyjmmuF28YzCaY3zPN9DymMXRYjtdyG7S9WaBPTtImw7++d1yadPHZaeG3bpc2OfRo3WVe2urAwYUmpSPHVi9Fm4BVX+ofBBhJGJFziu3o01nRRok2k3NEokW0CwfgO0OO79HGdW0YVLPifnw4Cx/fFc6hsT/vbc5sc8bhOINu0LER0VHhoNQLPp13RAeNuB/n4dCiL0fX7GzG+6RVzLRrxMW1KPiJIrE/PS+9c6el3+J8Cv5klevl66Xko1WdupxhvjHb8TmLOipmzL0SVcYwPW9QJJ9c2mTBeZW2LzyTpl16Z5q+xoZp+pTJ2WHmVeO02c+szUGvNO76T+3YusaortGHCFDSUNQ4dkW+sV4Yb7Sr3nde/R51SpuqwcWNhmOHbSv1imm30eqwv4qzqDSd47TaV0d0okG1rmtVZ+R7ae+krTTW74p+tHOc7aheuTKbVptDe+VyOavWbewzqsb1OM5uGPSyw8zPv626695p+e3ek0bm3dVhw2dHjFXaQavVY+3YWkWqrlcjUCPQTwgMyS/Wr1scqihwjqVsD3uc07G1h+o5ZHfewgzXw37rZjUCNQI1Au0IePc0SsuRWvFRbemFdt81m8qcjk0Yn8PCVwhHuBhd1scagRqBGoG+R2CIjYXuliGWsTlfmX1WYxD2imOTE8g7qp4VUWZv13a3p7p+jUCNQI3Aq4cApxY+Kyce2zue7disPPMPxU17+M70j0M/NfumCK8O2NqBqk9qBGoEBhgCFR/Fd41afs3syGbzONuxZQc2erH8yHAuZfu1PKuSv7RVKjfqPzUCNQI1AgMJAYEXH5UjNU6t+LC2YKw8oItXbx+USnWUBo661AjUCAwmBNqiN28dKP8HbYNf8sP+Qu4AAAAASUVORK5CYII=;" vertex="1" parent="9">
                    <mxGeometry x="420" y="40" width="330" height="154.35" as="geometry"/>
                </mxCell>
                <mxCell id="15" value="Formula&lt;br&gt;(Â°F) - 32) * 5/9" style="text;html=1;align=center;verticalAlign=middle;resizable=0;points=[];autosize=1;strokeColor=none;fillColor=none;fontSize=25;" parent="1" vertex="1">
                    <mxGeometry x="80" y="131" width="180" height="70" as="geometry"/>
                </mxCell>
                <mxCell id="17" value="" style="rounded=1;whiteSpace=wrap;html=1;fontSize=25;" parent="1" vertex="1">
                    <mxGeometry x="225" y="288" width="120" height="30" as="geometry"/>
                </mxCell>
                <mxCell id="18" value="Â°F" style="text;html=1;align=center;verticalAlign=middle;resizable=0;points=[];autosize=1;strokeColor=none;fillColor=none;fontSize=25;" parent="1" vertex="1">
                    <mxGeometry x="355" y="283" width="50" height="40" as="geometry"/>
                </mxCell>
            </root>
        </mxGraphModel>
    </diagram>
</mxfile>